HIERARCHY
ROOT joint_0
{
	OFFSET 0.000000 0.000000 0.000000
	CHANNELS 6 Xposition Yposition Zposition Zrotation Yrotation Xrotation 
	JOINT joint_1
	{
		OFFSET 1.363060 -1.794630 0.839290
		CHANNELS 3 Zrotation Yrotation Xrotation
		JOINT joint_2
		{
			OFFSET 2.448110 -6.726130 0.000000
			CHANNELS 3 Zrotation Yrotation Xrotation
			JOINT joint_3
			{
				OFFSET 2.562200 -7.039590 0.000000
				CHANNELS 3 Zrotation Yrotation Xrotation
				JOINT joint_4
				{
					OFFSET 0.157640 -0.433110 2.322550
					CHANNELS 3 Zrotation Yrotation Xrotation
					End Site
					{
						OFFSET 0.000000 0.000000 0.000000
					}
				}
			}
		}
	}
	JOINT joint_5
	{
		OFFSET -1.305520 -1.794630 0.839290
		CHANNELS 3 Zrotation Yrotation Xrotation
		JOINT joint_6
		{
			OFFSET -2.542530 -6.985550 0.000000
			CHANNELS 3 Zrotation Yrotation Xrotation
			JOINT joint_7
			{
				OFFSET -2.568260 -7.056230 0.000000
				CHANNELS 3 Zrotation Yrotation Xrotation
				JOINT joint_8
				{
					OFFSET -0.164730 -0.452590 2.363150
					CHANNELS 3 Zrotation Yrotation Xrotation
					End Site
					{
						OFFSET 0.000000 0.000000 0.000000
					}
				}
			}
		}
	}
	JOINT joint_9
	{
		OFFSET 0.028270 2.035590 -0.193380
		CHANNELS 3 Zrotation Yrotation Xrotation
		JOINT joint_10
		{
			OFFSET 0.056720 2.048850 -0.042750
			CHANNELS 3 Zrotation Yrotation Xrotation
			JOINT joint_11
			{
				OFFSET -0.054170 1.746240 0.172020
				CHANNELS 3 Zrotation Yrotation Xrotation
				JOINT joint_12
				{
					OFFSET 0.104070 1.761360 -0.123970
					CHANNELS 3 Zrotation Yrotation Xrotation
					End Site
					{
						OFFSET 0.000000 0.000000 0.000000
					}
				}
			}
			JOINT joint_13
			{
				OFFSET 3.362410 1.200890 -0.311210
				CHANNELS 3 Zrotation Yrotation Xrotation
				JOINT joint_14
				{
					OFFSET 4.983000 -0.000000 -0.000000
					CHANNELS 3 Zrotation Yrotation Xrotation
					JOINT joint_15
					{
						OFFSET 3.483560 -0.000000 -0.000000
						CHANNELS 3 Zrotation Yrotation Xrotation
						JOINT joint_16
						{
							OFFSET 0.000000 0.000000 0.000000
							CHANNELS 3 Zrotation Yrotation Xrotation
							End Site
							{
								OFFSET 0.000000 0.000000 0.000000
							}
						}
					}
				}
			}
			JOINT joint_17
			{
				OFFSET -3.136600 1.374050 -0.404650
				CHANNELS 3 Zrotation Yrotation Xrotation
				JOINT joint_18
				{
					OFFSET -5.241900 -0.000000 -0.000000
					CHANNELS 3 Zrotation Yrotation Xrotation
					JOINT joint_19
					{
						OFFSET -3.444170 -0.000000 -0.000000
						CHANNELS 3 Zrotation Yrotation Xrotation
						JOINT joint_20
						{
							OFFSET 0.000000 0.000000 0.000000
							CHANNELS 3 Zrotation Yrotation Xrotation
							End Site
							{
								OFFSET 0.000000 0.000000 0.000000
							}
						}
					}
				}
			}
		}
	}
}
MOTION
Frames: 18
Frame Time: 0.031667
-9.504039 13.213994 1.398569 -12.802456 78.930977 -3.364663 -4.954216 9.754595 -42.214964 -14.136792 15.020657 23.634510 -7.254379 9.548280 0.957733 -0.330794 3.188409 9.725322 -0.850328 -14.757621 -25.705299 -0.448865 -20.576440 66.009141 1.939117 1.565243 -0.433826 -6.920661 -5.886634 18.106499 1.688251 -5.366929 -5.193762 -1.676515 -1.026430 -7.952957 0.727263 -0.815543 11.413196 5.634571 1.475928 -30.572794 -73.775346 -74.138343 10.200461 27.362668 -37.269774 -12.493326 8.333773 -2.786768 -2.640676 -6.965961 -0.026061 0.045808 69.562062 76.457261 49.728801 -41.548765 44.162282 -30.422414 -11.752258 -1.378321 -6.863648 7.022977 -0.024287 0.016713 
-9.044865 13.234505 1.380784 -15.252708 78.662460 -5.019760 -4.895015 10.368102 -43.256910 -13.878003 15.803384 26.367904 -7.910402 9.403771 0.988164 -0.260725 3.552647 10.588840 -0.789429 -14.451304 -24.133406 -0.591341 -20.703546 66.078392 -2.372705 1.504511 -0.560070 -6.295873 -6.341911 18.550676 1.477669 -4.680671 -5.262647 -1.518077 -1.071700 -8.059907 0.828496 -0.380255 10.968842 6.256946 1.860653 -30.444049 -79.949803 -73.578821 19.508234 27.621367 -36.977483 -13.210218 8.540265 -2.362215 -2.588572 -6.954889 -0.026216 0.045507 70.663915 74.029572 52.573257 -41.906195 43.579264 -31.154033 -11.854794 -1.479605 -6.798382 7.016865 -0.022442 0.017591 
-8.582102 13.253814 1.375227 -16.009581 78.725639 -5.274573 -4.703366 10.833824 -44.690539 -13.689549 16.579849 29.421047 -8.460561 9.285083 1.100119 -0.115487 3.955585 11.486003 -0.739127 -13.985824 -22.990552 -0.389093 -20.738538 65.923073 -3.138464 1.135134 -0.222577 -5.321675 -7.293384 20.097856 1.179731 -4.062400 -5.420655 -1.336357 -1.205418 -8.525577 0.917849 0.099082 10.419547 6.914825 2.294147 -30.132595 -83.229502 -72.810383 25.280955 28.120601 -36.790254 -14.080504 8.722358 -1.912526 -2.648282 -6.948809 -0.025985 0.047112 71.929692 71.364630 55.801078 -43.108572 43.051400 -32.493604 -11.904340 -1.755886 -6.711535 7.017414 -0.022100 0.018265 
-8.108243 13.300405 1.390545 -14.743326 79.047958 -3.570675 -4.590270 11.334468 -46.217435 -13.444076 17.235612 32.494844 -8.005909 9.167023 0.936932 0.065670 4.163783 11.768823 -0.529926 -13.147636 -22.384640 -0.074769 -20.589728 65.783799 -1.204702 0.505970 0.254294 -3.968415 -8.791070 22.954336 0.947762 -3.415636 -5.613228 -1.171264 -1.232721 -9.191600 0.945857 0.619952 10.004638 7.669202 2.752149 -29.578558 -85.153150 -71.899236 29.154372 28.484725 -36.801985 -14.787868 8.750441 -1.492057 -2.853221 -6.946447 -0.025485 0.049516 73.854713 68.616429 58.732141 -44.490609 42.610985 -34.108305 -12.190521 -2.050027 -6.492735 7.022172 -0.022423 0.019176 
-7.625435 13.354099 1.398971 -12.545284 79.557106 -1.045868 -4.554134 11.642703 -48.236196 -13.469015 17.743160 35.330981 -5.826656 9.116217 0.870608 0.272272 4.139080 11.344409 -0.223414 -12.066929 -21.854249 0.310333 -20.602904 65.880494 -0.087080 -0.294838 1.263942 -2.290471 -10.760466 26.964928 0.861947 -2.744607 -5.864272 -1.119933 -1.333139 -9.599433 0.843800 1.050741 9.847065 8.540107 3.207971 -28.808314 -84.609009 -71.073774 29.884075 28.748362 -36.866236 -15.377749 8.821159 -1.018658 -3.172122 -6.945598 -0.025039 0.051922 73.347926 65.925081 58.667712 -45.760925 42.180465 -35.647509 -12.561645 -2.330166 -6.121149 7.027556 -0.023402 0.020225 
-7.136471 13.432327 1.396847 -12.834898 80.075310 -0.522212 -4.488046 11.918946 -50.130570 -13.658257 18.189412 37.919253 -3.105474 9.000986 0.904770 0.522666 3.987294 10.523340 0.090308 -10.933283 -22.096369 0.620410 -20.561605 66.306814 0.713871 -1.197898 2.582747 -0.465977 -12.934124 31.430925 0.875746 -2.334994 -6.228480 -1.154335 -1.420750 -10.039313 0.530361 1.382390 9.517515 9.662565 3.639103 -27.957720 -82.153283 -70.509300 28.019224 28.790142 -36.810119 -15.915493 8.919327 -0.615183 -3.553888 -6.945353 -0.024365 0.054577 75.444781 63.570258 59.356905 -46.765086 41.648557 -36.994128 -12.734648 -2.626655 -5.717745 7.032101 -0.025037 0.020935 
-6.670526 13.501952 1.377144 -15.472880 80.590347 -2.654320 -4.517302 11.993936 -51.345517 -13.650536 18.496729 40.222502 -1.378460 8.797624 0.863406 0.851177 3.843998 9.725689 0.541956 -9.654864 -22.573575 0.829008 -20.711951 67.172479 1.184885 -2.024719 3.901258 1.215469 -15.022400 35.665694 1.054656 -2.021219 -6.429621 -1.166149 -1.379637 -10.356783 0.098831 1.696174 9.403319 11.180812 4.002049 -27.045056 -80.264927 -70.084189 26.599475 28.860524 -36.742244 -16.379752 8.956577 -0.143007 -3.958932 -6.946984 -0.023486 0.058060 77.857005 61.612466 60.419136 -47.630888 41.065440 -38.352424 -13.018720 -2.891420 -5.404444 7.037306 -0.026423 0.021578 
-6.211817 13.555721 1.369746 -18.887506 81.359276 -5.776923 -4.599501 11.859249 -51.889306 -13.721982 18.797924 42.244478 -1.069134 8.475405 0.938177 1.299577 3.649276 8.787263 1.265150 -8.248265 -23.394761 0.853267 -20.835902 68.256047 1.403432 -2.733053 5.145695 2.573427 -16.931293 39.580916 1.190042 -1.825085 -6.457561 -1.142014 -1.462146 -10.609762 -0.127274 1.799419 9.266006 12.902437 4.236313 -26.128704 -78.749335 -69.667998 25.866775 28.913348 -36.480764 -16.872666 9.021634 0.205606 -4.378146 -6.947824 -0.022837 0.060890 79.556117 60.097134 61.559491 -48.202602 40.492233 -39.326829 -13.285170 -3.036559 -5.200277 7.040339 -0.027457 0.022005 
-5.754084 13.606577 1.388607 -22.488663 82.385277 -9.056768 -4.899419 11.700865 -51.953421 -13.685579 19.130323 43.910569 -1.585966 8.189538 1.044779 1.848454 3.309695 7.451704 1.965456 -6.894652 -24.268448 0.750378 -21.082489 69.566624 1.560808 -3.195916 5.964331 3.624676 -18.521226 42.855933 1.397781 -1.600894 -6.346877 -1.231256 -1.588840 -10.583002 -0.328223 1.839885 9.065512 14.607186 4.287257 -25.247936 -79.672005 -69.354465 28.159734 28.961327 -36.194388 -17.441778 9.187962 0.451865 -4.808987 -6.947572 -0.021817 0.063010 80.704286 59.018913 62.301994 -48.362722 39.896098 -40.062809 -13.511989 -3.241037 -5.048370 7.040752 -0.027363 0.021901 
-5.301321 13.663393 1.430833 -25.437986 83.286415 -11.655134 -5.047736 11.302863 -51.396142 -13.464165 19.410771 45.552058 -3.311818 7.799689 0.846071 2.439890 2.877742 5.876057 2.725617 -5.521389 -25.407588 0.393457 -21.411192 70.892309 1.703684 -3.442505 6.270408 4.403683 -19.723197 45.354587 1.390137 -1.363059 -6.130617 -1.146579 -1.632685 -10.550312 -0.700986 1.672388 8.913581 16.248105 4.128524 -24.193976 -83.263257 -69.252094 34.245168 29.381476 -35.957862 -18.159284 9.391540 0.605521 -5.177833 -6.950564 -0.020779 0.064548 81.205560 58.418751 62.809689 -48.407224 39.430006 -40.304243 -13.713705 -3.291680 -4.981695 7.044912 -0.026025 0.021670 
-4.854264 13.730706 1.477207 -27.362179 84.278252 -13.071217 -5.206960 10.875871 -50.729072 -13.047127 19.576895 46.975531 -5.653126 7.649118 0.664410 3.052118 2.355055 4.080446 3.588875 -4.418505 -27.024846 0.048688 -21.771184 72.302033 1.886114 -3.366795 5.978147 4.938250 -20.492693 46.994512 1.204058 -1.098409 -5.916481 -0.945506 -1.562102 -10.262235 -0.796185 1.359131 8.663747 17.768059 3.766107 -22.990526 -87.018734 -69.354718 40.112980 30.007190 -35.929633 -19.006977 9.516568 0.769763 -5.375283 -6.957088 -0.020130 0.066064 81.341160 58.545219 62.965520 -48.124324 39.062791 -40.326284 -13.886077 -3.253293 -4.920986 7.053277 -0.024162 0.021930 
-4.434174 13.791907 1.522553 -32.812950 85.215744 -18.129774 -5.421832 10.714249 -50.291496 -12.435902 19.835054 48.170022 -7.009872 7.522727 0.625089 3.658669 1.822681 2.291072 3.958345 -4.066908 -28.640940 -0.620043 -21.983859 72.896519 1.986347 -3.032341 5.537917 5.210619 -20.803506 47.611644 0.776070 -1.138330 -5.821959 -0.744226 -1.617406 -9.809683 -1.226414 0.732812 8.248609 19.188177 3.232395 -22.040413 -88.180775 -69.580196 42.188101 30.409956 -35.633534 -19.524495 9.605176 0.758449 -5.196524 -6.962679 -0.019988 0.064985 79.885729 59.081444 61.831804 -47.077776 38.608641 -40.176317 -13.936342 -3.335645 -4.731581 7.057840 -0.023672 0.022041 
-4.034414 13.848228 1.565736 -39.149872 85.516022 -24.179087 -5.617244 10.955531 -49.624832 -11.429185 20.086287 49.035769 -7.280719 7.550178 0.632948 4.239041 1.319120 0.674014 3.828900 -4.314167 -30.016868 -1.338321 -22.362630 73.479872 1.730073 -2.443480 5.251290 5.251032 -20.757840 47.381531 0.670334 -1.005676 -5.306214 -0.902016 -1.097380 -8.877818 -1.705352 0.043584 8.008102 20.632724 2.606728 -21.425859 -87.212090 -70.069572 42.210791 31.008144 -35.530111 -20.006394 10.107078 0.964194 -4.947701 -6.975245 -0.018986 0.071892 77.773260 60.150587 60.649621 -46.309144 38.356041 -39.649241 -13.639385 -3.109382 -4.822117 7.073272 -0.022674 0.023848 
-3.661366 13.910210 1.598949 -50.529392 85.616112 -35.274521 -5.456574 11.164048 -49.217442 -10.575027 19.739865 49.598641 -7.011045 7.495730 0.193498 4.787573 0.896516 -0.610898 3.378532 -5.764354 -30.959400 -0.964012 -22.853594 73.453890 2.253855 -1.937918 5.614960 5.243137 -20.365426 46.424796 1.215676 -0.770355 -5.225622 -0.333192 -0.926943 -8.698870 -2.134323 -0.628866 8.286385 22.045224 1.910812 -21.057600 -83.744751 -70.068500 40.110802 31.135557 -35.179603 -21.070273 10.554632 1.091492 -3.933189 -6.946892 -0.018505 0.088203 78.036974 60.094989 60.168967 -44.742390 37.155273 -39.025563 -14.017249 -3.168868 -5.071837 7.059085 -0.021564 0.027171 
-3.304685 13.968498 1.626381 -61.906971 85.509636 -46.461094 -5.215405 11.424251 -48.320265 -10.018209 19.565345 51.621955 -5.347953 7.314246 0.230090 5.286484 0.378138 -2.166257 2.778364 -6.128326 -33.429131 -1.177337 -23.211618 73.583752 2.671704 -1.553191 4.009333 5.162556 -19.554138 44.482884 1.143666 -0.861528 -6.218144 0.020269 -0.597850 -8.653442 -3.270272 -0.832890 6.747143 23.289734 1.421182 -20.771218 -78.997032 -70.320684 36.495326 30.408009 -34.972030 -21.470292 10.317722 0.818614 -3.567600 -6.913627 -0.018786 0.099149 78.140943 60.238423 59.636342 -42.705853 36.219687 -37.771718 -13.305674 -2.749778 -4.985214 7.040550 -0.017371 0.030382 
-2.961126 14.028904 1.650556 -71.269341 85.145607 -55.439491 -5.553641 11.776773 -47.118415 -8.970187 19.444034 52.251869 -3.340976 7.072648 0.054823 5.465736 -0.321681 -4.097350 2.940949 -6.640206 -35.507602 -2.326952 -23.574519 72.367295 2.691390 -1.215985 3.597915 4.743087 -18.173687 41.411205 1.713112 -1.474085 -5.364795 -0.097727 -0.634441 -7.491391 -2.736064 -1.014849 5.789881 23.190186 1.092041 -19.535068 -74.806506 -69.874229 33.900852 30.256416 -34.815424 -21.294016 10.119929 0.899724 -3.742807 -6.911334 -0.020471 0.085963 78.245206 60.871254 59.232589 -41.217374 36.111210 -36.987001 -12.988889 -1.122214 -5.148084 7.034764 -0.014224 0.030274 
-2.627868 14.081592 1.663784 -76.711693 84.918022 -60.578125 -5.472292 11.783780 -45.895682 -5.995101 19.159070 53.171404 -2.730611 6.753079 0.812479 5.609226 -0.694509 -4.985875 2.223677 -5.933791 -37.512417 -2.382930 -23.145795 71.925314 2.301542 -0.137740 2.801228 4.245179 -16.992099 39.134802 1.544737 -0.979543 -5.789009 0.154755 -0.590993 -6.779093 -1.114503 -1.393176 5.225330 22.598917 0.894227 -17.422047 -73.841995 -70.294975 35.152067 29.760138 -34.271307 -20.286620 9.581557 0.610913 -3.275114 -6.923951 -0.020135 0.070359 78.014332 61.499597 57.478501 -40.052431 36.411520 -34.460012 -12.437807 -0.924029 -5.237647 7.034347 -0.010686 0.029440 
-2.299820 14.128544 1.681141 -83.551491 84.730385 -67.072929 -5.373211 11.325441 -44.578370 -5.420617 19.559411 56.484394 -3.092913 6.922538 0.605681 5.782308 -0.629337 -4.602108 3.278006 -5.535835 -38.733907 -4.625801 -22.979360 72.699304 2.687264 0.179093 0.658621 3.639335 -16.026047 37.614425 0.659404 -0.289835 -5.200488 1.500764 -0.475212 -6.482349 -1.057052 -0.740335 4.089426 21.780375 0.662405 -15.319021 -74.435559 -69.166314 38.333597 30.828236 -33.749983 -20.116635 9.078205 1.379478 -3.915663 -6.935218 -0.016958 0.062114 78.260970 62.008419 57.023631 -39.568082 35.706419 -33.166675 -11.299113 -0.702332 -6.288049 7.032592 -0.008206 0.027907 
